<mxfile host="app.diagrams.net" modified="2023-04-07T13:28:52.411Z" agent="Mozilla/5.0 (X11; Linux x86_64; rv:109.0) Gecko/20100101 Firefox/111.0" version="21.1.4" etag="Ibip47oU0Sd6NraMNmZ4" type="github">
  <diagram name="Pagina-1" id="-E2HQ6KpQesaJob6Ah_3">
    <mxGraphModel>
      <root>
        <mxCell id="0" />
        <mxCell id="1" parent="0" />
      </root>
    </mxGraphModel>
  </diagram>
</mxfile>
